# xmcd CD database file
#
# Track frame offsets:
#	150
#	12341
#	30045
#	56290
#	74392
#	98624
#	112933
#	141412
#	155502
#
# Disc length: 2286 seconds
#
# Revision: 2
# Processed by: cddbd v1.5.2PL0 Copyright (c) Steve Scherf et al.
# Submitted via: FreeDB 13.8
#
DISCID=6608ec09
DTITLE=Dalton - Dalton var her [CD 1)
DYEAR=2010
DGENRE=Blues
TTITLE0=Joe Dalton
TTITLE1=Café Den sidste Chance
TTITLE2=Under rimelige grænser
TTITLE3=Verden skrumper ind
TTITLE4=Jeg har alderen med mig
TTITLE5=Sæt sejl op
TTITLE6=Rugbrød
TTITLE7=Blå måne over Themsen
TTITLE8=Bliv derude
EXTD=RecArt Music R 60182-0
EXTT0=
EXTT1=
EXTT2=
EXTT3=
EXTT4=
EXTT5=
EXTT6=
EXTT7=
EXTT8=
PLAYORDER=
